<mxfile host="app.diagrams.net" modified="2021-02-19T07:16:57.089Z" agent="5.0 (Macintosh; Intel Mac OS X 11_2_0) AppleWebKit/537.36 (KHTML, like Gecko) Chrome/88.0.4324.182 Safari/537.36" etag="wgH1GXft3R4z0bUo_91B" version="14.4.2" type="github">
  <diagram id="eKRGfKMBqLc3NzJdIPlq" name="Page-1">
    <mxGraphModel dx="2340" dy="1035" grid="1" gridSize="10" guides="1" tooltips="1" connect="1" arrows="1" fold="1" page="1" pageScale="1" pageWidth="850" pageHeight="1100" math="0" shadow="0">
      <root>
        <mxCell id="0" />
        <mxCell id="1" parent="0" />
        <mxCell id="XwypZ3vU5W_jLRQiYMMl-3" value="" style="edgeStyle=orthogonalEdgeStyle;rounded=0;orthogonalLoop=1;jettySize=auto;html=1;" parent="1" source="XwypZ3vU5W_jLRQiYMMl-1" target="XwypZ3vU5W_jLRQiYMMl-2" edge="1">
          <mxGeometry relative="1" as="geometry">
            <Array as="points">
              <mxPoint x="240" y="320" />
            </Array>
          </mxGeometry>
        </mxCell>
        <mxCell id="XwypZ3vU5W_jLRQiYMMl-6" style="edgeStyle=orthogonalEdgeStyle;rounded=0;orthogonalLoop=1;jettySize=auto;html=1;entryX=0;entryY=0.5;entryDx=0;entryDy=0;" parent="1" source="XwypZ3vU5W_jLRQiYMMl-1" target="XwypZ3vU5W_jLRQiYMMl-4" edge="1">
          <mxGeometry relative="1" as="geometry" />
        </mxCell>
        <mxCell id="XwypZ3vU5W_jLRQiYMMl-13" style="edgeStyle=orthogonalEdgeStyle;rounded=0;orthogonalLoop=1;jettySize=auto;html=1;entryX=0;entryY=0.5;entryDx=0;entryDy=0;" parent="1" source="XwypZ3vU5W_jLRQiYMMl-1" target="XwypZ3vU5W_jLRQiYMMl-12" edge="1">
          <mxGeometry relative="1" as="geometry" />
        </mxCell>
        <mxCell id="XwypZ3vU5W_jLRQiYMMl-47" style="edgeStyle=orthogonalEdgeStyle;rounded=0;orthogonalLoop=1;jettySize=auto;html=1;exitX=0.5;exitY=0;exitDx=0;exitDy=0;entryX=0.5;entryY=0;entryDx=0;entryDy=0;" parent="1" source="XwypZ3vU5W_jLRQiYMMl-1" target="XwypZ3vU5W_jLRQiYMMl-37" edge="1">
          <mxGeometry relative="1" as="geometry">
            <Array as="points">
              <mxPoint x="240" y="150" />
              <mxPoint x="-260" y="150" />
            </Array>
          </mxGeometry>
        </mxCell>
        <mxCell id="XwypZ3vU5W_jLRQiYMMl-49" style="edgeStyle=orthogonalEdgeStyle;rounded=0;orthogonalLoop=1;jettySize=auto;html=1;exitX=0;exitY=0.5;exitDx=0;exitDy=0;" parent="1" source="XwypZ3vU5W_jLRQiYMMl-1" edge="1">
          <mxGeometry relative="1" as="geometry">
            <mxPoint x="50" y="220.27586206896558" as="targetPoint" />
          </mxGeometry>
        </mxCell>
        <mxCell id="XwypZ3vU5W_jLRQiYMMl-1" value="Merchant" style="rounded=0;whiteSpace=wrap;html=1;" parent="1" vertex="1">
          <mxGeometry x="180" y="190" width="120" height="60" as="geometry" />
        </mxCell>
        <mxCell id="XwypZ3vU5W_jLRQiYMMl-2" value="create" style="rounded=0;whiteSpace=wrap;html=1;" parent="1" vertex="1">
          <mxGeometry x="290" y="290" width="120" height="60" as="geometry" />
        </mxCell>
        <mxCell id="XwypZ3vU5W_jLRQiYMMl-4" value="get" style="rounded=0;whiteSpace=wrap;html=1;" parent="1" vertex="1">
          <mxGeometry x="290" y="360" width="120" height="60" as="geometry" />
        </mxCell>
        <mxCell id="XwypZ3vU5W_jLRQiYMMl-7" value="" style="edgeStyle=orthogonalEdgeStyle;rounded=0;orthogonalLoop=1;jettySize=auto;html=1;" parent="1" source="XwypZ3vU5W_jLRQiYMMl-9" target="XwypZ3vU5W_jLRQiYMMl-10" edge="1">
          <mxGeometry relative="1" as="geometry">
            <Array as="points">
              <mxPoint x="465" y="322" />
            </Array>
          </mxGeometry>
        </mxCell>
        <mxCell id="XwypZ3vU5W_jLRQiYMMl-48" style="edgeStyle=orthogonalEdgeStyle;rounded=0;orthogonalLoop=1;jettySize=auto;html=1;exitX=0.5;exitY=0;exitDx=0;exitDy=0;entryX=0.5;entryY=0;entryDx=0;entryDy=0;" parent="1" source="XwypZ3vU5W_jLRQiYMMl-9" target="XwypZ3vU5W_jLRQiYMMl-37" edge="1">
          <mxGeometry relative="1" as="geometry" />
        </mxCell>
        <mxCell id="XwypZ3vU5W_jLRQiYMMl-50" style="edgeStyle=orthogonalEdgeStyle;rounded=0;orthogonalLoop=1;jettySize=auto;html=1;exitX=0;exitY=0.5;exitDx=0;exitDy=0;entryX=1;entryY=0.5;entryDx=0;entryDy=0;" parent="1" source="XwypZ3vU5W_jLRQiYMMl-9" target="XwypZ3vU5W_jLRQiYMMl-24" edge="1">
          <mxGeometry relative="1" as="geometry">
            <Array as="points">
              <mxPoint x="340" y="222" />
              <mxPoint x="340" y="260" />
              <mxPoint x="120" y="260" />
              <mxPoint x="120" y="220" />
            </Array>
          </mxGeometry>
        </mxCell>
        <mxCell id="XwypZ3vU5W_jLRQiYMMl-9" value="Store" style="rounded=0;whiteSpace=wrap;html=1;" parent="1" vertex="1">
          <mxGeometry x="405" y="192" width="120" height="60" as="geometry" />
        </mxCell>
        <mxCell id="XwypZ3vU5W_jLRQiYMMl-10" value="create" style="rounded=0;whiteSpace=wrap;html=1;" parent="1" vertex="1">
          <mxGeometry x="500" y="290" width="120" height="60" as="geometry" />
        </mxCell>
        <mxCell id="XwypZ3vU5W_jLRQiYMMl-12" value="update" style="rounded=0;whiteSpace=wrap;html=1;" parent="1" vertex="1">
          <mxGeometry x="290" y="430" width="120" height="60" as="geometry" />
        </mxCell>
        <mxCell id="XwypZ3vU5W_jLRQiYMMl-21" value="" style="edgeStyle=orthogonalEdgeStyle;rounded=0;orthogonalLoop=1;jettySize=auto;html=1;" parent="1" source="XwypZ3vU5W_jLRQiYMMl-24" target="XwypZ3vU5W_jLRQiYMMl-25" edge="1">
          <mxGeometry relative="1" as="geometry">
            <Array as="points">
              <mxPoint x="-10" y="320" />
            </Array>
          </mxGeometry>
        </mxCell>
        <mxCell id="XwypZ3vU5W_jLRQiYMMl-22" style="edgeStyle=orthogonalEdgeStyle;rounded=0;orthogonalLoop=1;jettySize=auto;html=1;entryX=0;entryY=0.5;entryDx=0;entryDy=0;" parent="1" source="XwypZ3vU5W_jLRQiYMMl-24" target="XwypZ3vU5W_jLRQiYMMl-26" edge="1">
          <mxGeometry relative="1" as="geometry" />
        </mxCell>
        <mxCell id="XwypZ3vU5W_jLRQiYMMl-23" style="edgeStyle=orthogonalEdgeStyle;rounded=0;orthogonalLoop=1;jettySize=auto;html=1;entryX=0;entryY=0.5;entryDx=0;entryDy=0;" parent="1" source="XwypZ3vU5W_jLRQiYMMl-24" target="XwypZ3vU5W_jLRQiYMMl-27" edge="1">
          <mxGeometry relative="1" as="geometry" />
        </mxCell>
        <mxCell id="XwypZ3vU5W_jLRQiYMMl-29" style="edgeStyle=orthogonalEdgeStyle;rounded=0;orthogonalLoop=1;jettySize=auto;html=1;entryX=0;entryY=0.5;entryDx=0;entryDy=0;" parent="1" source="XwypZ3vU5W_jLRQiYMMl-24" target="XwypZ3vU5W_jLRQiYMMl-28" edge="1">
          <mxGeometry relative="1" as="geometry" />
        </mxCell>
        <mxCell id="XwypZ3vU5W_jLRQiYMMl-24" value="Order" style="rounded=0;whiteSpace=wrap;html=1;" parent="1" vertex="1">
          <mxGeometry x="-70" y="190" width="120" height="60" as="geometry" />
        </mxCell>
        <mxCell id="XwypZ3vU5W_jLRQiYMMl-25" value="create" style="rounded=0;whiteSpace=wrap;html=1;" parent="1" vertex="1">
          <mxGeometry x="40" y="290" width="120" height="60" as="geometry" />
        </mxCell>
        <mxCell id="XwypZ3vU5W_jLRQiYMMl-26" value="update" style="rounded=0;whiteSpace=wrap;html=1;" parent="1" vertex="1">
          <mxGeometry x="40" y="360" width="120" height="60" as="geometry" />
        </mxCell>
        <mxCell id="XwypZ3vU5W_jLRQiYMMl-27" value="cancle" style="rounded=0;whiteSpace=wrap;html=1;" parent="1" vertex="1">
          <mxGeometry x="40" y="430" width="120" height="60" as="geometry" />
        </mxCell>
        <mxCell id="XwypZ3vU5W_jLRQiYMMl-28" value="Batch create" style="rounded=0;whiteSpace=wrap;html=1;" parent="1" vertex="1">
          <mxGeometry x="40" y="500" width="120" height="60" as="geometry" />
        </mxCell>
        <mxCell id="XwypZ3vU5W_jLRQiYMMl-33" value="" style="edgeStyle=orthogonalEdgeStyle;rounded=0;orthogonalLoop=1;jettySize=auto;html=1;" parent="1" source="XwypZ3vU5W_jLRQiYMMl-37" target="XwypZ3vU5W_jLRQiYMMl-38" edge="1">
          <mxGeometry relative="1" as="geometry">
            <Array as="points">
              <mxPoint x="-260" y="280" />
            </Array>
          </mxGeometry>
        </mxCell>
        <mxCell id="XwypZ3vU5W_jLRQiYMMl-37" value="Order Cross border" style="rounded=0;whiteSpace=wrap;html=1;" parent="1" vertex="1">
          <mxGeometry x="-320" y="170" width="120" height="60" as="geometry" />
        </mxCell>
        <mxCell id="XwypZ3vU5W_jLRQiYMMl-38" value="create" style="rounded=0;whiteSpace=wrap;html=1;" parent="1" vertex="1">
          <mxGeometry x="-230" y="250" width="120" height="60" as="geometry" />
        </mxCell>
        <mxCell id="XwypZ3vU5W_jLRQiYMMl-45" style="edgeStyle=orthogonalEdgeStyle;rounded=0;orthogonalLoop=1;jettySize=auto;html=1;exitX=1;exitY=0.5;exitDx=0;exitDy=0;entryX=0;entryY=0.5;entryDx=0;entryDy=0;" parent="1" source="XwypZ3vU5W_jLRQiYMMl-43" target="XwypZ3vU5W_jLRQiYMMl-37" edge="1">
          <mxGeometry relative="1" as="geometry" />
        </mxCell>
        <mxCell id="XwypZ3vU5W_jLRQiYMMl-43" value="get all country" style="rounded=0;whiteSpace=wrap;html=1;" parent="1" vertex="1">
          <mxGeometry x="-490" y="170" width="120" height="60" as="geometry" />
        </mxCell>
        <mxCell id="XwypZ3vU5W_jLRQiYMMl-46" style="edgeStyle=orthogonalEdgeStyle;rounded=0;orthogonalLoop=1;jettySize=auto;html=1;exitX=1;exitY=0.5;exitDx=0;exitDy=0;" parent="1" source="XwypZ3vU5W_jLRQiYMMl-44" edge="1">
          <mxGeometry relative="1" as="geometry">
            <mxPoint x="-320" y="200" as="targetPoint" />
            <Array as="points">
              <mxPoint x="-340" y="270" />
              <mxPoint x="-340" y="200" />
            </Array>
          </mxGeometry>
        </mxCell>
        <mxCell id="XwypZ3vU5W_jLRQiYMMl-44" value="get rate by weight international" style="rounded=0;whiteSpace=wrap;html=1;" parent="1" vertex="1">
          <mxGeometry x="-490" y="240" width="120" height="60" as="geometry" />
        </mxCell>
        <mxCell id="-m6qlQXstEaMMELnGQX9-1" value="" style="edgeStyle=orthogonalEdgeStyle;rounded=0;orthogonalLoop=1;jettySize=auto;html=1;" edge="1" parent="1" source="-m6qlQXstEaMMELnGQX9-6" target="-m6qlQXstEaMMELnGQX9-7">
          <mxGeometry relative="1" as="geometry">
            <Array as="points">
              <mxPoint x="1780" y="300" />
            </Array>
          </mxGeometry>
        </mxCell>
        <mxCell id="-m6qlQXstEaMMELnGQX9-2" style="edgeStyle=orthogonalEdgeStyle;rounded=0;orthogonalLoop=1;jettySize=auto;html=1;entryX=0;entryY=0.5;entryDx=0;entryDy=0;" edge="1" parent="1" source="-m6qlQXstEaMMELnGQX9-6" target="-m6qlQXstEaMMELnGQX9-8">
          <mxGeometry relative="1" as="geometry" />
        </mxCell>
        <mxCell id="-m6qlQXstEaMMELnGQX9-3" style="edgeStyle=orthogonalEdgeStyle;rounded=0;orthogonalLoop=1;jettySize=auto;html=1;entryX=0;entryY=0.5;entryDx=0;entryDy=0;" edge="1" parent="1" source="-m6qlQXstEaMMELnGQX9-6" target="-m6qlQXstEaMMELnGQX9-14">
          <mxGeometry relative="1" as="geometry" />
        </mxCell>
        <mxCell id="-m6qlQXstEaMMELnGQX9-4" style="edgeStyle=orthogonalEdgeStyle;rounded=0;orthogonalLoop=1;jettySize=auto;html=1;exitX=0.5;exitY=0;exitDx=0;exitDy=0;entryX=0.5;entryY=0;entryDx=0;entryDy=0;" edge="1" parent="1" source="-m6qlQXstEaMMELnGQX9-6" target="-m6qlQXstEaMMELnGQX9-25">
          <mxGeometry relative="1" as="geometry">
            <Array as="points">
              <mxPoint x="1780" y="130" />
              <mxPoint x="1280" y="130" />
            </Array>
          </mxGeometry>
        </mxCell>
        <mxCell id="-m6qlQXstEaMMELnGQX9-5" style="edgeStyle=orthogonalEdgeStyle;rounded=0;orthogonalLoop=1;jettySize=auto;html=1;exitX=0;exitY=0.5;exitDx=0;exitDy=0;" edge="1" parent="1" source="-m6qlQXstEaMMELnGQX9-6">
          <mxGeometry relative="1" as="geometry">
            <mxPoint x="1590" y="200.27586206896558" as="targetPoint" />
          </mxGeometry>
        </mxCell>
        <mxCell id="-m6qlQXstEaMMELnGQX9-6" value="Merchant" style="rounded=0;whiteSpace=wrap;html=1;" vertex="1" parent="1">
          <mxGeometry x="1720" y="170" width="120" height="60" as="geometry" />
        </mxCell>
        <mxCell id="-m6qlQXstEaMMELnGQX9-7" value="create" style="rounded=0;whiteSpace=wrap;html=1;" vertex="1" parent="1">
          <mxGeometry x="1830" y="270" width="120" height="60" as="geometry" />
        </mxCell>
        <mxCell id="-m6qlQXstEaMMELnGQX9-8" value="get" style="rounded=0;whiteSpace=wrap;html=1;" vertex="1" parent="1">
          <mxGeometry x="1830" y="340" width="120" height="60" as="geometry" />
        </mxCell>
        <mxCell id="-m6qlQXstEaMMELnGQX9-9" value="" style="edgeStyle=orthogonalEdgeStyle;rounded=0;orthogonalLoop=1;jettySize=auto;html=1;" edge="1" parent="1" source="-m6qlQXstEaMMELnGQX9-12" target="-m6qlQXstEaMMELnGQX9-13">
          <mxGeometry relative="1" as="geometry">
            <Array as="points">
              <mxPoint x="2005" y="302" />
            </Array>
          </mxGeometry>
        </mxCell>
        <mxCell id="-m6qlQXstEaMMELnGQX9-10" style="edgeStyle=orthogonalEdgeStyle;rounded=0;orthogonalLoop=1;jettySize=auto;html=1;exitX=0.5;exitY=0;exitDx=0;exitDy=0;entryX=0.5;entryY=0;entryDx=0;entryDy=0;" edge="1" parent="1" source="-m6qlQXstEaMMELnGQX9-12" target="-m6qlQXstEaMMELnGQX9-25">
          <mxGeometry relative="1" as="geometry" />
        </mxCell>
        <mxCell id="-m6qlQXstEaMMELnGQX9-11" style="edgeStyle=orthogonalEdgeStyle;rounded=0;orthogonalLoop=1;jettySize=auto;html=1;exitX=0;exitY=0.5;exitDx=0;exitDy=0;entryX=1;entryY=0.5;entryDx=0;entryDy=0;" edge="1" parent="1" source="-m6qlQXstEaMMELnGQX9-12" target="-m6qlQXstEaMMELnGQX9-19">
          <mxGeometry relative="1" as="geometry">
            <Array as="points">
              <mxPoint x="1880" y="202" />
              <mxPoint x="1880" y="240" />
              <mxPoint x="1660" y="240" />
              <mxPoint x="1660" y="200" />
            </Array>
          </mxGeometry>
        </mxCell>
        <mxCell id="-m6qlQXstEaMMELnGQX9-12" value="Store" style="rounded=0;whiteSpace=wrap;html=1;" vertex="1" parent="1">
          <mxGeometry x="1945" y="172" width="120" height="60" as="geometry" />
        </mxCell>
        <mxCell id="-m6qlQXstEaMMELnGQX9-13" value="create" style="rounded=0;whiteSpace=wrap;html=1;" vertex="1" parent="1">
          <mxGeometry x="2040" y="270" width="120" height="60" as="geometry" />
        </mxCell>
        <mxCell id="-m6qlQXstEaMMELnGQX9-14" value="update" style="rounded=0;whiteSpace=wrap;html=1;" vertex="1" parent="1">
          <mxGeometry x="1830" y="410" width="120" height="60" as="geometry" />
        </mxCell>
        <mxCell id="-m6qlQXstEaMMELnGQX9-15" value="" style="edgeStyle=orthogonalEdgeStyle;rounded=0;orthogonalLoop=1;jettySize=auto;html=1;" edge="1" parent="1" source="-m6qlQXstEaMMELnGQX9-19" target="-m6qlQXstEaMMELnGQX9-20">
          <mxGeometry relative="1" as="geometry">
            <Array as="points">
              <mxPoint x="1530" y="300" />
            </Array>
          </mxGeometry>
        </mxCell>
        <mxCell id="-m6qlQXstEaMMELnGQX9-16" style="edgeStyle=orthogonalEdgeStyle;rounded=0;orthogonalLoop=1;jettySize=auto;html=1;entryX=0;entryY=0.5;entryDx=0;entryDy=0;" edge="1" parent="1" source="-m6qlQXstEaMMELnGQX9-19" target="-m6qlQXstEaMMELnGQX9-21">
          <mxGeometry relative="1" as="geometry" />
        </mxCell>
        <mxCell id="-m6qlQXstEaMMELnGQX9-17" style="edgeStyle=orthogonalEdgeStyle;rounded=0;orthogonalLoop=1;jettySize=auto;html=1;entryX=0;entryY=0.5;entryDx=0;entryDy=0;" edge="1" parent="1" source="-m6qlQXstEaMMELnGQX9-19" target="-m6qlQXstEaMMELnGQX9-22">
          <mxGeometry relative="1" as="geometry" />
        </mxCell>
        <mxCell id="-m6qlQXstEaMMELnGQX9-18" style="edgeStyle=orthogonalEdgeStyle;rounded=0;orthogonalLoop=1;jettySize=auto;html=1;entryX=0;entryY=0.5;entryDx=0;entryDy=0;" edge="1" parent="1" source="-m6qlQXstEaMMELnGQX9-19" target="-m6qlQXstEaMMELnGQX9-23">
          <mxGeometry relative="1" as="geometry" />
        </mxCell>
        <mxCell id="-m6qlQXstEaMMELnGQX9-19" value="Order" style="rounded=0;whiteSpace=wrap;html=1;" vertex="1" parent="1">
          <mxGeometry x="1470" y="170" width="120" height="60" as="geometry" />
        </mxCell>
        <mxCell id="-m6qlQXstEaMMELnGQX9-20" value="create" style="rounded=0;whiteSpace=wrap;html=1;" vertex="1" parent="1">
          <mxGeometry x="1580" y="270" width="120" height="60" as="geometry" />
        </mxCell>
        <mxCell id="-m6qlQXstEaMMELnGQX9-21" value="update" style="rounded=0;whiteSpace=wrap;html=1;" vertex="1" parent="1">
          <mxGeometry x="1580" y="340" width="120" height="60" as="geometry" />
        </mxCell>
        <mxCell id="-m6qlQXstEaMMELnGQX9-22" value="cancle" style="rounded=0;whiteSpace=wrap;html=1;" vertex="1" parent="1">
          <mxGeometry x="1580" y="410" width="120" height="60" as="geometry" />
        </mxCell>
        <mxCell id="-m6qlQXstEaMMELnGQX9-23" value="Batch create" style="rounded=0;whiteSpace=wrap;html=1;" vertex="1" parent="1">
          <mxGeometry x="1580" y="480" width="120" height="60" as="geometry" />
        </mxCell>
        <mxCell id="-m6qlQXstEaMMELnGQX9-24" value="" style="edgeStyle=orthogonalEdgeStyle;rounded=0;orthogonalLoop=1;jettySize=auto;html=1;" edge="1" parent="1" source="-m6qlQXstEaMMELnGQX9-25" target="-m6qlQXstEaMMELnGQX9-26">
          <mxGeometry relative="1" as="geometry">
            <Array as="points">
              <mxPoint x="1280" y="260" />
            </Array>
          </mxGeometry>
        </mxCell>
        <mxCell id="-m6qlQXstEaMMELnGQX9-25" value="Order Cross border" style="rounded=0;whiteSpace=wrap;html=1;" vertex="1" parent="1">
          <mxGeometry x="1220" y="150" width="120" height="60" as="geometry" />
        </mxCell>
        <mxCell id="-m6qlQXstEaMMELnGQX9-26" value="create" style="rounded=0;whiteSpace=wrap;html=1;" vertex="1" parent="1">
          <mxGeometry x="1310" y="230" width="120" height="60" as="geometry" />
        </mxCell>
        <mxCell id="-m6qlQXstEaMMELnGQX9-27" style="edgeStyle=orthogonalEdgeStyle;rounded=0;orthogonalLoop=1;jettySize=auto;html=1;exitX=1;exitY=0.5;exitDx=0;exitDy=0;entryX=0;entryY=0.5;entryDx=0;entryDy=0;" edge="1" parent="1" source="-m6qlQXstEaMMELnGQX9-28" target="-m6qlQXstEaMMELnGQX9-25">
          <mxGeometry relative="1" as="geometry" />
        </mxCell>
        <mxCell id="-m6qlQXstEaMMELnGQX9-28" value="get all country" style="rounded=0;whiteSpace=wrap;html=1;" vertex="1" parent="1">
          <mxGeometry x="1050" y="150" width="120" height="60" as="geometry" />
        </mxCell>
        <mxCell id="-m6qlQXstEaMMELnGQX9-29" style="edgeStyle=orthogonalEdgeStyle;rounded=0;orthogonalLoop=1;jettySize=auto;html=1;exitX=1;exitY=0.5;exitDx=0;exitDy=0;" edge="1" parent="1" source="-m6qlQXstEaMMELnGQX9-30">
          <mxGeometry relative="1" as="geometry">
            <mxPoint x="1220" y="180" as="targetPoint" />
            <Array as="points">
              <mxPoint x="1200" y="250" />
              <mxPoint x="1200" y="180" />
            </Array>
          </mxGeometry>
        </mxCell>
        <mxCell id="-m6qlQXstEaMMELnGQX9-30" value="get rate by weight international" style="rounded=0;whiteSpace=wrap;html=1;" vertex="1" parent="1">
          <mxGeometry x="1050" y="220" width="120" height="60" as="geometry" />
        </mxCell>
        <mxCell id="-m6qlQXstEaMMELnGQX9-31" value="" style="rounded=0;whiteSpace=wrap;html=1;" vertex="1" parent="1">
          <mxGeometry x="-410" y="330" width="120" height="60" as="geometry" />
        </mxCell>
        <mxCell id="-m6qlQXstEaMMELnGQX9-33" value="required สาขาที่ dropoff" style="rounded=0;whiteSpace=wrap;html=1;" vertex="1" parent="1">
          <mxGeometry x="290" y="500" width="210" height="60" as="geometry" />
        </mxCell>
      </root>
    </mxGraphModel>
  </diagram>
</mxfile>
